<?xml version="1.0" encoding="iso-8859-1"?>
<!-- Generator: Adobe Illustrator 18.1.1, SVG Export Plug-In . SVG Version: 6.00 Build 0)  -->
<svg version="1.1" id="Capa_1" xmlns="http://www.w3.org/2000/svg" xmlns:xlink="http://www.w3.org/1999/xlink" x="0px" y="0px"
	 viewBox="0 0 58.754 58.754" style="enable-background:new 0 0 58.754 58.754;" xml:space="preserve">
<g>
	<path style="fill:#010002;" d="M56.909,6.635H45.848c-1.018,0-1.842,0.825-1.842,1.843v7.599h-9.217
		c-1.018,0-1.843,0.825-1.843,1.843v8.855h-8.294c-1.019,0-1.844,0.825-1.844,1.843v9.677h-8.985c-1.018,0-1.843,0.825-1.843,1.844
		v8.293H1.843C0.825,48.432,0,49.258,0,50.277c0,1.018,0.826,1.843,1.843,1.843h11.981c1.019,0,1.844-0.825,1.844-1.843v-8.294
		h8.985c1.018,0,1.843-0.826,1.843-1.844v-9.678h8.294c1.018,0,1.844-0.824,1.844-1.843v-8.854h9.215
		c1.02,0,1.845-0.825,1.845-1.844v-7.598h9.216c1.018,0,1.844-0.825,1.844-1.844C58.753,7.46,57.927,6.635,56.909,6.635z"/>
</g>
<g>
</g>
<g>
</g>
<g>
</g>
<g>
</g>
<g>
</g>
<g>
</g>
<g>
</g>
<g>
</g>
<g>
</g>
<g>
</g>
<g>
</g>
<g>
</g>
<g>
</g>
<g>
</g>
<g>
</g>
</svg>
